<svg xmlns="http://www.w3.org/2000/svg" viewBox="0 0 800 500">
  <defs>
    <linearGradient id="dw-bg" x1="0" y1="0" x2="1" y2="1"><stop offset="0%" stop-color="#0f172a"/><stop offset="100%" stop-color="#1e293b"/></linearGradient>
    <linearGradient id="dw-accent" x1="0" y1="0" x2="1" y2="1"><stop offset="0%" stop-color="#22d3ee"/><stop offset="100%" stop-color="#3b82f6"/></linearGradient>
  </defs>
  <rect width="800" height="500" fill="url(#dw-bg)"/>

  <text x="400" y="45" text-anchor="middle" fill="#e2e8f0" font-family="Inter,system-ui,sans-serif" font-size="22" font-weight="700">Data Warehouse &amp; Collectors</text>
  <text x="400" y="68" text-anchor="middle" fill="#64748b" font-family="Inter,system-ui,sans-serif" font-size="13">39+ Automated Pipelines · Central SQLite · REST API :8555</text>

  <!-- Collector grid -->
  <rect x="30" y="95" width="105" height="40" rx="5" fill="#1e293b" stroke="#f59e0b" stroke-width="1"/>
  <text x="82" y="120" text-anchor="middle" fill="#fbbf24" font-family="JetBrains Mono,monospace" font-size="10">ESPN</text>

  <rect x="145" y="95" width="105" height="40" rx="5" fill="#1e293b" stroke="#f59e0b" stroke-width="1"/>
  <text x="197" y="120" text-anchor="middle" fill="#fbbf24" font-family="JetBrains Mono,monospace" font-size="10">Odds API</text>

  <rect x="260" y="95" width="105" height="40" rx="5" fill="#1e293b" stroke="#a78bfa" stroke-width="1"/>
  <text x="312" y="120" text-anchor="middle" fill="#c4b5fd" font-family="JetBrains Mono,monospace" font-size="10">CoinGecko</text>

  <rect x="375" y="95" width="105" height="40" rx="5" fill="#1e293b" stroke="#a78bfa" stroke-width="1"/>
  <text x="427" y="120" text-anchor="middle" fill="#c4b5fd" font-family="JetBrains Mono,monospace" font-size="10">DeFiLlama</text>

  <rect x="490" y="95" width="105" height="40" rx="5" fill="#1e293b" stroke="#34d399" stroke-width="1"/>
  <text x="542" y="120" text-anchor="middle" fill="#6ee7b7" font-family="JetBrains Mono,monospace" font-size="10">SEC EDGAR</text>

  <rect x="605" y="95" width="105" height="40" rx="5" fill="#1e293b" stroke="#34d399" stroke-width="1"/>
  <text x="657" y="120" text-anchor="middle" fill="#6ee7b7" font-family="JetBrains Mono,monospace" font-size="10">GitHub</text>

  <rect x="30" y="145" width="105" height="40" rx="5" fill="#1e293b" stroke="#fb923c" stroke-width="1"/>
  <text x="82" y="170" text-anchor="middle" fill="#fdba74" font-family="JetBrains Mono,monospace" font-size="10">FDA</text>

  <rect x="145" y="145" width="105" height="40" rx="5" fill="#1e293b" stroke="#fb923c" stroke-width="1"/>
  <text x="197" y="170" text-anchor="middle" fill="#fdba74" font-family="JetBrains Mono,monospace" font-size="10">BLS Econ</text>

  <rect x="260" y="145" width="105" height="40" rx="5" fill="#1e293b" stroke="#22d3ee" stroke-width="1"/>
  <text x="312" y="170" text-anchor="middle" fill="#67e8f9" font-family="JetBrains Mono,monospace" font-size="10">Weather</text>

  <rect x="375" y="145" width="105" height="40" rx="5" fill="#1e293b" stroke="#22d3ee" stroke-width="1"/>
  <text x="427" y="170" text-anchor="middle" fill="#67e8f9" font-family="JetBrains Mono,monospace" font-size="10">Polymarket</text>

  <rect x="490" y="145" width="105" height="40" rx="5" fill="#1e293b" stroke="#f472b6" stroke-width="1"/>
  <text x="542" y="170" text-anchor="middle" fill="#f9a8d4" font-family="JetBrains Mono,monospace" font-size="10">Flights</text>

  <rect x="605" y="145" width="105" height="40" rx="5" fill="#1e293b" stroke="#94a3b8" stroke-width="1"/>
  <text x="657" y="170" text-anchor="middle" fill="#94a3b8" font-family="JetBrains Mono,monospace" font-size="10">+28 more</text>

  <!-- Funnel arrows -->
  <line x1="200" y1="192" x2="300" y2="240" stroke="#334155" stroke-width="1" opacity="0.5"/>
  <line x1="400" y1="192" x2="400" y2="240" stroke="#334155" stroke-width="1" opacity="0.5"/>
  <line x1="600" y1="192" x2="500" y2="240" stroke="#334155" stroke-width="1" opacity="0.5"/>

  <!-- Central warehouse -->
  <rect x="250" y="240" width="300" height="100" rx="12" fill="url(#dw-accent)" opacity="0.9"/>
  <text x="400" y="275" text-anchor="middle" fill="#fff" font-family="Inter,system-ui,sans-serif" font-size="16" font-weight="700">warehouse.db</text>
  <text x="400" y="298" text-anchor="middle" fill="#cffafe" font-family="JetBrains Mono,monospace" font-size="11">50+ tables · dynamic schema</text>
  <text x="400" y="318" text-anchor="middle" fill="#cffafe" font-family="JetBrains Mono,monospace" font-size="11">REST API · :8555</text>

  <!-- Output databases -->
  <line x1="300" y1="345" x2="160" y2="385" stroke="#334155" stroke-width="1.5"/>
  <line x1="400" y1="345" x2="400" y2="385" stroke="#334155" stroke-width="1.5"/>
  <line x1="500" y1="345" x2="640" y2="385" stroke="#334155" stroke-width="1.5"/>

  <rect x="70" y="385" width="160" height="55" rx="8" fill="#1e293b" stroke="#f59e0b" stroke-width="1.5"/>
  <text x="150" y="410" text-anchor="middle" fill="#fbbf24" font-family="Inter,system-ui,sans-serif" font-size="12" font-weight="600">edge.db</text>
  <text x="150" y="428" text-anchor="middle" fill="#94a3b8" font-family="JetBrains Mono,monospace" font-size="9">50K games · 114K odds</text>

  <rect x="310" y="385" width="160" height="55" rx="8" fill="#1e293b" stroke="#ef4444" stroke-width="1.5"/>
  <text x="390" y="410" text-anchor="middle" fill="#fca5a5" font-family="Inter,system-ui,sans-serif" font-size="12" font-weight="600">chase.db</text>
  <text x="390" y="428" text-anchor="middle" fill="#94a3b8" font-family="JetBrains Mono,monospace" font-size="9">Bets · Sequences · Bankroll</text>

  <rect x="560" y="385" width="170" height="55" rx="8" fill="#1e293b" stroke="#a78bfa" stroke-width="1.5"/>
  <text x="645" y="410" text-anchor="middle" fill="#c4b5fd" font-family="Inter,system-ui,sans-serif" font-size="12" font-weight="600">finance.db</text>
  <text x="645" y="428" text-anchor="middle" fill="#94a3b8" font-family="JetBrains Mono,monospace" font-size="9">SQLCipher · Plaid txns</text>

  <!-- Category labels -->
  <text x="82" y="90" text-anchor="middle" fill="#475569" font-family="Inter,system-ui,sans-serif" font-size="9" font-weight="600">SPORTS</text>
  <text x="312" y="90" text-anchor="middle" fill="#475569" font-family="Inter,system-ui,sans-serif" font-size="9" font-weight="600">CRYPTO</text>
  <text x="542" y="90" text-anchor="middle" fill="#475569" font-family="Inter,system-ui,sans-serif" font-size="9" font-weight="600">MARKETS</text>
</svg>
